<svg xmlns="http://www.w3.org/2000/svg" width="1800" height="1000" viewBox="0 0 1800 1000">
  <defs>
    <style>
      text { font-family: Arial, Helvetica, sans-serif; fill: #17212b; }
      .panel { font-size: 28px; font-weight: 700; }
      .title { font-size: 30px; font-weight: 700; }
      .section { font-size: 21px; font-weight: 700; }
      .label { font-size: 18px; font-weight: 600; }
      .small { font-size: 15px; }
      .tiny { font-size: 13px; fill: #53606c; }
      .muted { fill: #6b7680; }
      .box { fill: #ffffff; stroke: #cbd3da; stroke-width: 1.6; }
      .soft { fill: #f5f7f8; stroke: #d8dee3; stroke-width: 1.3; }
      .arrow { stroke: #35414c; stroke-width: 2.2; fill: none; marker-end: url(#arrow); }
      .thin { stroke: #aab4bd; stroke-width: 1.15; fill: none; }
      .dash { stroke: #8b959d; stroke-width: 1.7; stroke-dasharray: 7 6; fill: none; }
    </style>
    <marker id="arrow" viewBox="0 0 10 10" refX="9" refY="5" markerWidth="7" markerHeight="7" orient="auto-start-reverse">
      <path d="M 0 0 L 10 5 L 0 10 z" fill="#35414c"/>
    </marker>
    <clipPath id="mapClip"><rect x="86" y="217" width="205" height="205" rx="8"/></clipPath>
  </defs>

  <rect width="1800" height="1000" fill="#ffffff"/>
  <text x="56" y="61" class="title">NNLS-gated dual-head network for quantitative SERS mixture analysis</text>
  <text x="56" y="91" class="small muted">Map-resolved learning links spectral composition to absolute concentration without pixel-level data leakage</text>
  <line x1="56" y1="112" x2="1744" y2="112" stroke="#27323c" stroke-width="2"/>

  <!-- Panel a -->
  <text x="56" y="158" class="panel">a</text>
  <text x="95" y="158" class="section">SERS map and informative-pixel selection</text>

  <rect x="67" y="185" width="618" height="592" rx="14" class="box"/>

  <!-- Synthetic map -->
  <rect x="86" y="217" width="205" height="205" rx="8" fill="#eef1f3" stroke="#b8c1c9" stroke-width="1.5"/>
  <g clip-path="url(#mapClip)">
    <rect x="86" y="217" width="205" height="205" fill="#1d2730"/>
    <g opacity="0.94">
      <circle cx="108" cy="239" r="15" fill="#0067b1"/><circle cx="139" cy="240" r="15" fill="#009e73"/><circle cx="170" cy="240" r="15" fill="#d55e00"/><circle cx="201" cy="240" r="15" fill="#687580"/><circle cx="232" cy="240" r="15" fill="#009e73"/><circle cx="263" cy="240" r="15" fill="#0067b1"/>
      <circle cx="108" cy="271" r="15" fill="#009e73"/><circle cx="139" cy="271" r="15" fill="#687580"/><circle cx="170" cy="271" r="15" fill="#0067b1"/><circle cx="201" cy="271" r="15" fill="#0067b1"/><circle cx="232" cy="271" r="15" fill="#d55e00"/><circle cx="263" cy="271" r="15" fill="#687580"/>
      <circle cx="108" cy="303" r="15" fill="#d55e00"/><circle cx="139" cy="303" r="15" fill="#0067b1"/><circle cx="170" cy="303" r="15" fill="#009e73"/><circle cx="201" cy="303" r="15" fill="#687580"/><circle cx="232" cy="303" r="15" fill="#0067b1"/><circle cx="263" cy="303" r="15" fill="#009e73"/>
      <circle cx="108" cy="335" r="15" fill="#687580"/><circle cx="139" cy="335" r="15" fill="#009e73"/><circle cx="170" cy="335" r="15" fill="#d55e00"/><circle cx="201" cy="335" r="15" fill="#009e73"/><circle cx="232" cy="335" r="15" fill="#687580"/><circle cx="263" cy="335" r="15" fill="#0067b1"/>
      <circle cx="108" cy="367" r="15" fill="#0067b1"/><circle cx="139" cy="367" r="15" fill="#d55e00"/><circle cx="170" cy="367" r="15" fill="#687580"/><circle cx="201" cy="367" r="15" fill="#0067b1"/><circle cx="232" cy="367" r="15" fill="#009e73"/><circle cx="263" cy="367" r="15" fill="#d55e00"/>
      <circle cx="108" cy="399" r="15" fill="#009e73"/><circle cx="139" cy="399" r="15" fill="#0067b1"/><circle cx="170" cy="399" r="15" fill="#009e73"/><circle cx="201" cy="399" r="15" fill="#d55e00"/><circle cx="232" cy="399" r="15" fill="#0067b1"/><circle cx="263" cy="399" r="15" fill="#687580"/>
    </g>
  </g>
  <text x="188" y="450" text-anchor="middle" class="label">SERS map</text>
  <text x="188" y="474" text-anchor="middle" class="small muted">up to 400 pixels per map</text>

  <!-- Spectrum -->
  <rect x="332" y="217" width="315" height="205" rx="8" fill="#fbfcfc" stroke="#cbd3da" stroke-width="1.4"/>
  <line x1="365" y1="383" x2="621" y2="383" stroke="#697580" stroke-width="1.3"/>
  <line x1="365" y1="250" x2="365" y2="383" stroke="#697580" stroke-width="1.3"/>
  <path d="M365 376 C382 373,388 366,398 370 C411 374,418 365,426 351 C435 333,443 374,456 371 C471 367,478 347,487 269 C493 223,503 354,516 365 C529 377,539 361,548 329 C558 293,567 372,582 368 C596 364,606 346,621 356" fill="none" stroke="#26323c" stroke-width="3"/>
  <path d="M365 379 C388 377,403 372,421 375 C442 378,452 365,466 370 C484 376,496 360,507 351 C520 341,531 372,546 373 C565 374,580 367,596 370 C606 372,613 369,621 366" fill="none" stroke="#009e73" stroke-width="2" opacity="0.65"/>
  <text x="491" y="408" text-anchor="middle" class="tiny">Raman shift</text>
  <text x="346" y="316" text-anchor="middle" class="tiny" transform="rotate(-90 346 316)">Intensity</text>
  <text x="489" y="450" text-anchor="middle" class="label">Pixel spectrum</text>
  <text x="489" y="474" text-anchor="middle" class="small muted">1,290 spectral channels</text>

  <path d="M292 319 L330 319" class="arrow"/>

  <!-- Preprocess + gate -->
  <rect x="111" y="529" width="222" height="92" rx="10" class="soft"/>
  <text x="222" y="562" text-anchor="middle" class="label">Preprocessing</text>
  <text x="222" y="590" text-anchor="middle" class="small">log(1 + intensity)</text>
  <path d="M291 494 L291 515 L222 515 L222 528" class="arrow"/>

  <rect x="381" y="514" width="239" height="122" rx="10" fill="#eff8f4" stroke="#5aa786" stroke-width="1.8"/>
  <text x="500" y="548" text-anchor="middle" class="label">NNLS screening gate</text>
  <text x="500" y="577" text-anchor="middle" class="small">component fraction ≥ 0.15</text>
  <line x1="411" y1="596" x2="590" y2="596" stroke="#9bbcac" stroke-width="1"/>
  <text x="500" y="619" text-anchor="middle" class="tiny">selection only — not the final ratio</text>
  <path d="M333 575 L380 575" class="arrow"/>

  <rect x="181" y="685" width="390" height="55" rx="27" fill="#17212b"/>
  <text x="376" y="719" text-anchor="middle" font-family="Arial" font-size="17" font-weight="700" fill="#ffffff">Selected spectra retained with map identity</text>
  <path d="M500 636 L500 660 L376 660 L376 684" class="arrow"/>

  <!-- Panel b -->
  <text x="725" y="158" class="panel">b</text>
  <text x="764" y="158" class="section">Composition head</text>
  <rect x="714" y="185" width="505" height="592" rx="14" class="box"/>

  <text x="757" y="230" class="label">Pixel-wise composition MLP</text>
  <text x="757" y="256" class="tiny">Trainable parameters: 347,716</text>

  <!-- Network connections -->
  <g stroke="#c5cdd3" stroke-width="0.9" opacity="0.8">
    <line x1="782" y1="327" x2="902" y2="294"/><line x1="782" y1="327" x2="902" y2="322"/><line x1="782" y1="327" x2="902" y2="350"/><line x1="782" y1="327" x2="902" y2="378"/>
    <line x1="782" y1="365" x2="902" y2="294"/><line x1="782" y1="365" x2="902" y2="322"/><line x1="782" y1="365" x2="902" y2="350"/><line x1="782" y1="365" x2="902" y2="378"/>
    <line x1="782" y1="403" x2="902" y2="294"/><line x1="782" y1="403" x2="902" y2="322"/><line x1="782" y1="403" x2="902" y2="350"/><line x1="782" y1="403" x2="902" y2="378"/>
    <line x1="918" y1="294" x2="1024" y2="317"/><line x1="918" y1="294" x2="1024" y2="347"/><line x1="918" y1="294" x2="1024" y2="377"/>
    <line x1="918" y1="322" x2="1024" y2="317"/><line x1="918" y1="322" x2="1024" y2="347"/><line x1="918" y1="322" x2="1024" y2="377"/>
    <line x1="918" y1="350" x2="1024" y2="317"/><line x1="918" y1="350" x2="1024" y2="347"/><line x1="918" y1="350" x2="1024" y2="377"/>
    <line x1="918" y1="378" x2="1024" y2="317"/><line x1="918" y1="378" x2="1024" y2="347"/><line x1="918" y1="378" x2="1024" y2="377"/>
    <line x1="1040" y1="317" x2="1137" y2="296"/><line x1="1040" y1="317" x2="1137" y2="332"/><line x1="1040" y1="317" x2="1137" y2="368"/><line x1="1040" y1="317" x2="1137" y2="404"/>
    <line x1="1040" y1="347" x2="1137" y2="296"/><line x1="1040" y1="347" x2="1137" y2="332"/><line x1="1040" y1="347" x2="1137" y2="368"/><line x1="1040" y1="347" x2="1137" y2="404"/>
    <line x1="1040" y1="377" x2="1137" y2="296"/><line x1="1040" y1="377" x2="1137" y2="332"/><line x1="1040" y1="377" x2="1137" y2="368"/><line x1="1040" y1="377" x2="1137" y2="404"/>
  </g>
  <g fill="#17212b"><circle cx="782" cy="327" r="9"/><circle cx="782" cy="365" r="9"/><circle cx="782" cy="403" r="9"/></g>
  <text x="782" y="437" text-anchor="middle" class="tiny">⋮</text>
  <g fill="#4c78a8"><circle cx="910" cy="294" r="8"/><circle cx="910" cy="322" r="8"/><circle cx="910" cy="350" r="8"/><circle cx="910" cy="378" r="8"/></g>
  <text x="910" y="413" text-anchor="middle" class="tiny">⋮</text>
  <g fill="#8064a2"><circle cx="1032" cy="317" r="8"/><circle cx="1032" cy="347" r="8"/><circle cx="1032" cy="377" r="8"/></g>
  <g><circle cx="1146" cy="296" r="11" fill="#0067b1"/><circle cx="1146" cy="332" r="11" fill="#009e73"/><circle cx="1146" cy="368" r="11" fill="#d94b63"/><circle cx="1146" cy="404" r="11" fill="#687580"/></g>

  <text x="782" y="474" text-anchor="middle" class="label">1,290</text><text x="782" y="495" text-anchor="middle" class="tiny">input</text>
  <text x="910" y="474" text-anchor="middle" class="label">256</text><text x="910" y="495" text-anchor="middle" class="tiny">BN · ReLU</text><text x="910" y="514" text-anchor="middle" class="tiny">dropout 0.15</text>
  <text x="1032" y="474" text-anchor="middle" class="label">64</text><text x="1032" y="495" text-anchor="middle" class="tiny">ReLU</text>
  <text x="1146" y="474" text-anchor="middle" class="label">4</text><text x="1146" y="495" text-anchor="middle" class="tiny">Softmax</text>

  <!-- composition output -->
  <rect x="758" y="559" width="417" height="168" rx="10" class="soft"/>
  <text x="779" y="591" class="label">Map-level composition</text>
  <text x="1152" y="591" text-anchor="end" class="tiny">mean pooling over pixels</text>
  <rect x="780" y="622" width="126" height="36" rx="3" fill="#0067b1"/><rect x="906" y="622" width="90" height="36" fill="#009e73"/><rect x="996" y="622" width="70" height="36" fill="#d94b63"/><rect x="1066" y="622" width="82" height="36" rx="3" fill="#687580"/>
  <text x="843" y="646" text-anchor="middle" font-family="Arial" font-size="14" font-weight="700" fill="#fff">DQ</text>
  <text x="951" y="646" text-anchor="middle" font-family="Arial" font-size="14" font-weight="700" fill="#fff">TBZ</text>
  <text x="1031" y="646" text-anchor="middle" font-family="Arial" font-size="14" font-weight="700" fill="#fff">THI</text>
  <text x="1107" y="646" text-anchor="middle" font-family="Arial" font-size="14" font-weight="700" fill="#fff">BLK</text>
  <text x="780" y="692" class="small">Pixel fractions → map composition ratio</text>

  <!-- Panel c -->
  <text x="1260" y="158" class="panel">c</text>
  <text x="1299" y="158" class="section">Concentration head</text>
  <rect x="1249" y="185" width="495" height="592" rx="14" class="box"/>

  <text x="1288" y="230" class="label">Context-aware concentration MLP</text>
  <text x="1288" y="256" class="tiny">Trainable parameters: 6,659</text>

  <!-- 16 feature block -->
  <rect x="1287" y="282" width="154" height="208" rx="9" fill="#f5f7f8" stroke="#cbd3da" stroke-width="1.4"/>
  <text x="1364" y="310" text-anchor="middle" class="label">16 features</text>
  <rect x="1303" y="329" width="122" height="30" rx="4" fill="#e3eef7"/><text x="1364" y="350" text-anchor="middle" class="tiny">local ratios · 3</text>
  <rect x="1303" y="366" width="122" height="30" rx="4" fill="#e7f3ee"/><text x="1364" y="387" text-anchor="middle" class="tiny">local intensity · 1</text>
  <rect x="1303" y="403" width="122" height="30" rx="4" fill="#eee9f4"/><text x="1364" y="424" text-anchor="middle" class="tiny">ratio quantiles · 9</text>
  <rect x="1303" y="440" width="122" height="30" rx="4" fill="#f3ece4"/><text x="1364" y="461" text-anchor="middle" class="tiny">intensity quantiles · 3</text>

  <!-- Concentration net -->
  <g stroke="#c5cdd3" stroke-width="0.9">
    <line x1="1441" y1="344" x2="1505" y2="316"/><line x1="1441" y1="381" x2="1505" y2="349"/><line x1="1441" y1="418" x2="1505" y2="382"/><line x1="1441" y1="455" x2="1505" y2="415"/>
    <line x1="1521" y1="316" x2="1585" y2="338"/><line x1="1521" y1="316" x2="1585" y2="376"/><line x1="1521" y1="349" x2="1585" y2="338"/><line x1="1521" y1="349" x2="1585" y2="376"/><line x1="1521" y1="382" x2="1585" y2="338"/><line x1="1521" y1="382" x2="1585" y2="376"/><line x1="1521" y1="415" x2="1585" y2="338"/><line x1="1521" y1="415" x2="1585" y2="376"/>
    <line x1="1601" y1="338" x2="1663" y2="319"/><line x1="1601" y1="338" x2="1663" y2="361"/><line x1="1601" y1="338" x2="1663" y2="403"/><line x1="1601" y1="376" x2="1663" y2="319"/><line x1="1601" y1="376" x2="1663" y2="361"/><line x1="1601" y1="376" x2="1663" y2="403"/>
  </g>
  <g fill="#4c78a8"><circle cx="1513" cy="316" r="8"/><circle cx="1513" cy="349" r="8"/><circle cx="1513" cy="382" r="8"/><circle cx="1513" cy="415" r="8"/></g>
  <g fill="#8064a2"><circle cx="1593" cy="338" r="8"/><circle cx="1593" cy="376" r="8"/></g>
  <g><circle cx="1672" cy="319" r="11" fill="#0067b1"/><circle cx="1672" cy="361" r="11" fill="#009e73"/><circle cx="1672" cy="403" r="11" fill="#d94b63"/></g>
  <text x="1513" y="455" text-anchor="middle" class="label">128</text><text x="1513" y="476" text-anchor="middle" class="tiny">BN · ReLU</text><text x="1513" y="495" text-anchor="middle" class="tiny">dropout 0.25</text>
  <text x="1593" y="455" text-anchor="middle" class="label">32</text><text x="1593" y="476" text-anchor="middle" class="tiny">ReLU</text>
  <text x="1672" y="455" text-anchor="middle" class="label">3</text><text x="1672" y="476" text-anchor="middle" class="tiny">log₁₀(µM)</text>

  <rect x="1288" y="546" width="417" height="181" rx="10" class="soft"/>
  <text x="1309" y="578" class="label">Absolute concentration</text>
  <text x="1681" y="578" text-anchor="end" class="tiny">median pooling in log space</text>
  <line x1="1326" y1="690" x2="1672" y2="690" stroke="#78848d" stroke-width="1.2"/>
  <rect x="1361" y="627" width="58" height="63" fill="#0067b1"/><rect x="1466" y="602" width="58" height="88" fill="#009e73"/><rect x="1571" y="642" width="58" height="48" fill="#d94b63"/>
  <text x="1390" y="714" text-anchor="middle" class="tiny">DQ</text><text x="1495" y="714" text-anchor="middle" class="tiny">TBZ</text><text x="1600" y="714" text-anchor="middle" class="tiny">THI</text>
  <text x="1682" y="714" text-anchor="end" class="small">µM</text>

  <!-- Cross-panel arrows -->
  <path d="M685 482 L713 482" class="arrow"/>
  <path d="M1219 626 L1248 626" class="arrow"/>

  <!-- Bottom validation strip -->
  <rect x="67" y="816" width="1677" height="126" rx="12" fill="#f5f7f8" stroke="#d4dbe0" stroke-width="1.4"/>
  <text x="90" y="850" class="section">Training and validation</text>
  <rect x="91" y="870" width="340" height="48" rx="8" fill="#ffffff" stroke="#cbd3da"/>
  <text x="261" y="900" text-anchor="middle" class="small">Filename-derived ratio and µM labels</text>
  <path d="M432 894 L548 894" class="arrow"/>
  <rect x="549" y="870" width="401" height="48" rx="8" fill="#ffffff" stroke="#cbd3da"/>
  <text x="749" y="900" text-anchor="middle" class="small">Map-level pooled supervision</text>
  <path d="M951 894 L1067 894" class="arrow"/>
  <rect x="1068" y="858" width="627" height="72" rx="8" fill="#eef6f2" stroke="#85ad99" stroke-width="1.3"/>
  <text x="1381" y="886" text-anchor="middle" class="label">Condition-grouped five-fold cross-validation</text>
  <text x="1381" y="912" text-anchor="middle" class="small">all pixels from a map remain in the same fold · fold-specific refitting</text>

  <text x="67" y="975" class="tiny">Architecture represented by composition26081902.dlm · Composition: 1,290–256–64–4 · Concentration: 16–128–32–3 · Total trainable parameters ≈ 354,375</text>
</svg>
